<mxfile host="Electron" agent="Mozilla/5.0 (Macintosh; Intel Mac OS X 10_15_7) AppleWebKit/537.36 (KHTML, like Gecko) draw.io/27.0.9 Chrome/134.0.6998.205 Electron/35.4.0 Safari/537.36" version="27.0.9">
  <diagram name="Page-1" id="c4acf3e9-155e-7222-9cf6-157b1a14988f">
    <mxGraphModel dx="1664" dy="598" grid="1" gridSize="10" guides="1" tooltips="1" connect="1" arrows="1" fold="1" page="1" pageScale="1" pageWidth="850" pageHeight="1100" background="none" math="0" shadow="0">
      <root>
        <mxCell id="0" />
        <mxCell id="1" parent="0" />
        <mxCell id="17acba5748e5396b-20" value="&lt;font style=&quot;font-size: 12px;&quot;&gt;&lt;b&gt;board_spots&lt;/b&gt;&lt;/font&gt;" style="swimlane;html=1;fontStyle=0;childLayout=stackLayout;horizontal=1;startSize=26;fillColor=none;horizontalStack=0;resizeParent=1;resizeLast=0;collapsible=1;marginBottom=0;swimlaneFillColor=#ffffff;rounded=0;shadow=0;comic=0;labelBackgroundColor=none;strokeWidth=1;fontFamily=Verdana;fontSize=10;align=center;" parent="1" vertex="1">
          <mxGeometry x="380" y="42" width="120" height="130" as="geometry" />
        </mxCell>
        <mxCell id="17acba5748e5396b-21" value="&lt;div&gt;&lt;u&gt;board_id&lt;/u&gt;&lt;/div&gt;&lt;div&gt;&lt;span style=&quot;background-color: transparent; color: light-dark(rgb(0, 0, 0), rgb(255, 255, 255));&quot;&gt;column&lt;/span&gt;&lt;/div&gt;&lt;div&gt;row&lt;/div&gt;&lt;div&gt;pawn_value&lt;/div&gt;&lt;div&gt;&lt;span style=&quot;background-color: transparent; color: light-dark(rgb(0, 0, 0), rgb(255, 255, 255));&quot;&gt;power_value&lt;/span&gt;&lt;/div&gt;&lt;div&gt;&lt;u&gt;current_card_id&lt;/u&gt;&lt;/div&gt;" style="text;html=1;strokeColor=none;fillColor=none;align=left;verticalAlign=top;spacingLeft=4;spacingRight=4;whiteSpace=wrap;overflow=hidden;rotatable=0;points=[[0,0.5],[1,0.5]];portConstraint=eastwest;" parent="17acba5748e5396b-20" vertex="1">
          <mxGeometry y="26" width="120" height="104" as="geometry" />
        </mxCell>
        <mxCell id="_FI4FavQm8VD4Ou4lNko-3" value="&lt;span style=&quot;font-size: 12px;&quot;&gt;&lt;b&gt;board_spots_cards&lt;/b&gt;&lt;/span&gt;" style="swimlane;html=1;fontStyle=0;childLayout=stackLayout;horizontal=1;startSize=26;fillColor=none;horizontalStack=0;resizeParent=1;resizeLast=0;collapsible=1;marginBottom=0;swimlaneFillColor=#ffffff;rounded=0;shadow=0;comic=0;labelBackgroundColor=none;strokeWidth=1;fontFamily=Verdana;fontSize=10;align=center;" vertex="1" parent="1">
          <mxGeometry x="170" y="10" width="160" height="100" as="geometry">
            <mxRectangle x="510" y="42" width="170" height="30" as="alternateBounds" />
          </mxGeometry>
        </mxCell>
        <mxCell id="_FI4FavQm8VD4Ou4lNko-4" value="&lt;div&gt;&lt;u&gt;board_spot_id&lt;/u&gt;&lt;/div&gt;&lt;div&gt;&lt;u&gt;user_id&lt;/u&gt;&lt;/div&gt;&lt;div&gt;&lt;u&gt;card_id&lt;/u&gt;&lt;/div&gt;&lt;div&gt;spot_order&lt;/div&gt;" style="text;html=1;strokeColor=none;fillColor=none;align=left;verticalAlign=top;spacingLeft=4;spacingRight=4;whiteSpace=wrap;overflow=hidden;rotatable=0;points=[[0,0.5],[1,0.5]];portConstraint=eastwest;" vertex="1" parent="_FI4FavQm8VD4Ou4lNko-3">
          <mxGeometry y="26" width="160" height="74" as="geometry" />
        </mxCell>
        <mxCell id="_FI4FavQm8VD4Ou4lNko-5" value="&lt;font style=&quot;font-size: 12px;&quot;&gt;&lt;b&gt;board_tiles&lt;/b&gt;&lt;/font&gt;" style="swimlane;html=1;fontStyle=0;childLayout=stackLayout;horizontal=1;startSize=26;fillColor=none;horizontalStack=0;resizeParent=1;resizeLast=0;collapsible=1;marginBottom=0;swimlaneFillColor=#ffffff;rounded=0;shadow=0;comic=0;labelBackgroundColor=none;strokeWidth=1;fontFamily=Verdana;fontSize=10;align=center;" vertex="1" parent="1">
          <mxGeometry x="480" y="200" width="120" height="160" as="geometry">
            <mxRectangle x="350" y="210" width="120" height="30" as="alternateBounds" />
          </mxGeometry>
        </mxCell>
        <mxCell id="_FI4FavQm8VD4Ou4lNko-6" value="&lt;div&gt;&lt;u&gt;board_id&lt;/u&gt;&lt;/div&gt;&lt;div&gt;&lt;span style=&quot;background-color: transparent; color: light-dark(rgb(0, 0, 0), rgb(255, 255, 255));&quot;&gt;column&lt;/span&gt;&lt;/div&gt;&lt;div&gt;row&lt;/div&gt;&lt;div&gt;pawn_rank&lt;/div&gt;&lt;div&gt;total_power&lt;/div&gt;&lt;div&gt;&lt;u&gt;current_card_id&lt;/u&gt;&lt;/div&gt;&lt;div&gt;&lt;u&gt;claiming_user_id&lt;/u&gt;&lt;/div&gt;&lt;div&gt;claimed_at&lt;/div&gt;" style="text;html=1;strokeColor=none;fillColor=none;align=left;verticalAlign=top;spacingLeft=4;spacingRight=4;whiteSpace=wrap;overflow=hidden;rotatable=0;points=[[0,0.5],[1,0.5]];portConstraint=eastwest;" vertex="1" parent="_FI4FavQm8VD4Ou4lNko-5">
          <mxGeometry y="26" width="120" height="134" as="geometry" />
        </mxCell>
        <mxCell id="_FI4FavQm8VD4Ou4lNko-7" value="&lt;span style=&quot;font-size: 12px;&quot;&gt;&lt;b&gt;boards&lt;/b&gt;&lt;/span&gt;" style="swimlane;html=1;fontStyle=0;childLayout=stackLayout;horizontal=1;startSize=26;fillColor=none;horizontalStack=0;resizeParent=1;resizeLast=0;collapsible=1;marginBottom=0;swimlaneFillColor=#ffffff;rounded=0;shadow=0;comic=0;labelBackgroundColor=none;strokeWidth=1;fontFamily=Verdana;fontSize=10;align=center;" vertex="1" parent="1">
          <mxGeometry x="360" y="270" width="80" height="70" as="geometry" />
        </mxCell>
        <mxCell id="_FI4FavQm8VD4Ou4lNko-8" value="&lt;div&gt;columns&lt;/div&gt;&lt;div&gt;rows&lt;/div&gt;" style="text;html=1;strokeColor=none;fillColor=none;align=left;verticalAlign=top;spacingLeft=4;spacingRight=4;whiteSpace=wrap;overflow=hidden;rotatable=0;points=[[0,0.5],[1,0.5]];portConstraint=eastwest;" vertex="1" parent="_FI4FavQm8VD4Ou4lNko-7">
          <mxGeometry y="26" width="80" height="44" as="geometry" />
        </mxCell>
        <mxCell id="_FI4FavQm8VD4Ou4lNko-9" value="&lt;font style=&quot;font-size: 12px;&quot;&gt;&lt;b&gt;card_abilities&lt;/b&gt;&lt;/font&gt;" style="swimlane;html=1;fontStyle=0;childLayout=stackLayout;horizontal=1;startSize=26;fillColor=none;horizontalStack=0;resizeParent=1;resizeLast=0;collapsible=1;marginBottom=0;swimlaneFillColor=#ffffff;rounded=0;shadow=0;comic=0;labelBackgroundColor=none;strokeWidth=1;fontFamily=Verdana;fontSize=10;align=center;" vertex="1" parent="1">
          <mxGeometry x="-160" y="110" width="130" height="130" as="geometry">
            <mxRectangle x="510" y="210" width="130" height="30" as="alternateBounds" />
          </mxGeometry>
        </mxCell>
        <mxCell id="_FI4FavQm8VD4Ou4lNko-10" value="&lt;div&gt;&lt;u&gt;card_id&lt;/u&gt;&lt;/div&gt;&lt;div&gt;type&lt;/div&gt;&lt;div&gt;when&lt;/div&gt;&lt;div&gt;which&lt;/div&gt;&lt;div&gt;action_type&lt;/div&gt;&lt;div&gt;action_value&lt;/div&gt;" style="text;html=1;strokeColor=none;fillColor=none;align=left;verticalAlign=top;spacingLeft=4;spacingRight=4;whiteSpace=wrap;overflow=hidden;rotatable=0;points=[[0,0.5],[1,0.5]];portConstraint=eastwest;" vertex="1" parent="_FI4FavQm8VD4Ou4lNko-9">
          <mxGeometry y="26" width="130" height="104" as="geometry" />
        </mxCell>
        <mxCell id="_FI4FavQm8VD4Ou4lNko-11" value="&lt;font style=&quot;font-size: 12px;&quot;&gt;&lt;b&gt;card_tiles&lt;/b&gt;&lt;/font&gt;" style="swimlane;html=1;fontStyle=0;childLayout=stackLayout;horizontal=1;startSize=26;fillColor=none;horizontalStack=0;resizeParent=1;resizeLast=0;collapsible=1;marginBottom=0;swimlaneFillColor=#ffffff;rounded=0;shadow=0;comic=0;labelBackgroundColor=none;strokeWidth=1;fontFamily=Verdana;fontSize=10;align=center;" vertex="1" parent="1">
          <mxGeometry x="-145" y="270" width="100" height="100" as="geometry">
            <mxRectangle x="350" y="210" width="120" height="30" as="alternateBounds" />
          </mxGeometry>
        </mxCell>
        <mxCell id="_FI4FavQm8VD4Ou4lNko-12" value="&lt;div&gt;&lt;u&gt;card_id&lt;/u&gt;&lt;/div&gt;&lt;div&gt;type&lt;/div&gt;&lt;div&gt;x&lt;/div&gt;&lt;div&gt;y&lt;/div&gt;" style="text;html=1;strokeColor=none;fillColor=none;align=left;verticalAlign=top;spacingLeft=4;spacingRight=4;whiteSpace=wrap;overflow=hidden;rotatable=0;points=[[0,0.5],[1,0.5]];portConstraint=eastwest;" vertex="1" parent="_FI4FavQm8VD4Ou4lNko-11">
          <mxGeometry y="26" width="100" height="74" as="geometry" />
        </mxCell>
        <mxCell id="_FI4FavQm8VD4Ou4lNko-13" value="&lt;font style=&quot;font-size: 12px;&quot;&gt;&lt;b&gt;cards&lt;/b&gt;&lt;/font&gt;" style="swimlane;html=1;fontStyle=0;childLayout=stackLayout;horizontal=1;startSize=26;fillColor=none;horizontalStack=0;resizeParent=1;resizeLast=0;collapsible=1;marginBottom=0;swimlaneFillColor=#ffffff;rounded=0;shadow=0;comic=0;labelBackgroundColor=none;strokeWidth=1;fontFamily=Verdana;fontSize=10;align=center;" vertex="1" parent="1">
          <mxGeometry x="10" y="110" width="120" height="160" as="geometry">
            <mxRectangle x="350" y="210" width="120" height="30" as="alternateBounds" />
          </mxGeometry>
        </mxCell>
        <mxCell id="_FI4FavQm8VD4Ou4lNko-14" value="type&lt;div&gt;name&lt;/div&gt;&lt;div&gt;category&lt;/div&gt;&lt;div&gt;card_number&lt;/div&gt;&lt;div&gt;description&lt;/div&gt;&lt;div&gt;pawn_rank&lt;/div&gt;&lt;div&gt;power&lt;/div&gt;&lt;div&gt;raise_pawn_rank&lt;/div&gt;" style="text;html=1;strokeColor=none;fillColor=none;align=left;verticalAlign=top;spacingLeft=4;spacingRight=4;whiteSpace=wrap;overflow=hidden;rotatable=0;points=[[0,0.5],[1,0.5]];portConstraint=eastwest;" vertex="1" parent="_FI4FavQm8VD4Ou4lNko-13">
          <mxGeometry y="26" width="120" height="124" as="geometry" />
        </mxCell>
        <mxCell id="_FI4FavQm8VD4Ou4lNko-15" value="&lt;font style=&quot;font-size: 12px;&quot;&gt;&lt;b&gt;game_moves&lt;/b&gt;&lt;/font&gt;" style="swimlane;html=1;fontStyle=0;childLayout=stackLayout;horizontal=1;startSize=26;fillColor=none;horizontalStack=0;resizeParent=1;resizeLast=0;collapsible=1;marginBottom=0;swimlaneFillColor=#ffffff;rounded=0;shadow=0;comic=0;labelBackgroundColor=none;strokeWidth=1;fontFamily=Verdana;fontSize=10;align=center;" vertex="1" parent="1">
          <mxGeometry x="190" y="180" width="130" height="110" as="geometry">
            <mxRectangle x="510" y="210" width="130" height="30" as="alternateBounds" />
          </mxGeometry>
        </mxCell>
        <mxCell id="_FI4FavQm8VD4Ou4lNko-16" value="&lt;div&gt;&lt;u&gt;game_id&lt;/u&gt;&lt;/div&gt;&lt;div&gt;&lt;u&gt;user_id&lt;/u&gt;&lt;/div&gt;&lt;div&gt;&lt;u&gt;board_spot_id&lt;/u&gt;&lt;/div&gt;&lt;div&gt;&lt;u&gt;card_id&lt;/u&gt;&lt;/div&gt;&lt;div&gt;move_order&lt;/div&gt;" style="text;html=1;strokeColor=none;fillColor=none;align=left;verticalAlign=top;spacingLeft=4;spacingRight=4;whiteSpace=wrap;overflow=hidden;rotatable=0;points=[[0,0.5],[1,0.5]];portConstraint=eastwest;" vertex="1" parent="_FI4FavQm8VD4Ou4lNko-15">
          <mxGeometry y="26" width="130" height="84" as="geometry" />
        </mxCell>
        <mxCell id="_FI4FavQm8VD4Ou4lNko-17" value="&lt;font style=&quot;font-size: 12px;&quot;&gt;&lt;b&gt;game_session_moves&lt;/b&gt;&lt;/font&gt;" style="swimlane;html=1;fontStyle=0;childLayout=stackLayout;horizontal=1;startSize=26;fillColor=none;horizontalStack=0;resizeParent=1;resizeLast=0;collapsible=1;marginBottom=0;swimlaneFillColor=#ffffff;rounded=0;shadow=0;comic=0;labelBackgroundColor=none;strokeWidth=1;fontFamily=Verdana;fontSize=10;align=center;" vertex="1" parent="1">
          <mxGeometry x="670" y="520" width="170" height="130" as="geometry">
            <mxRectangle x="510" y="210" width="130" height="30" as="alternateBounds" />
          </mxGeometry>
        </mxCell>
        <mxCell id="_FI4FavQm8VD4Ou4lNko-18" value="&lt;div&gt;&lt;u&gt;game_session_id&lt;/u&gt;&lt;/div&gt;&lt;div&gt;&lt;u&gt;user_id&lt;/u&gt;&lt;/div&gt;&lt;div&gt;&lt;u&gt;board_spot_id&lt;/u&gt;&lt;/div&gt;&lt;div&gt;&lt;u&gt;card_id&lt;/u&gt;&lt;/div&gt;&lt;div&gt;move_order&lt;/div&gt;" style="text;html=1;strokeColor=none;fillColor=none;align=left;verticalAlign=top;spacingLeft=4;spacingRight=4;whiteSpace=wrap;overflow=hidden;rotatable=0;points=[[0,0.5],[1,0.5]];portConstraint=eastwest;" vertex="1" parent="_FI4FavQm8VD4Ou4lNko-17">
          <mxGeometry y="26" width="170" height="84" as="geometry" />
        </mxCell>
        <mxCell id="_FI4FavQm8VD4Ou4lNko-19" value="&lt;font style=&quot;font-size: 12px;&quot;&gt;&lt;b&gt;games&lt;/b&gt;&lt;/font&gt;" style="swimlane;html=1;fontStyle=0;childLayout=stackLayout;horizontal=1;startSize=26;fillColor=none;horizontalStack=0;resizeParent=1;resizeLast=0;collapsible=1;marginBottom=0;swimlaneFillColor=#ffffff;rounded=0;shadow=0;comic=0;labelBackgroundColor=none;strokeWidth=1;fontFamily=Verdana;fontSize=10;align=center;" vertex="1" parent="1">
          <mxGeometry x="220" y="350" width="120" height="80" as="geometry">
            <mxRectangle x="350" y="210" width="120" height="30" as="alternateBounds" />
          </mxGeometry>
        </mxCell>
        <mxCell id="_FI4FavQm8VD4Ou4lNko-20" value="&lt;u&gt;board_id&lt;/u&gt;&lt;div&gt;&lt;u&gt;winner_user_id&lt;/u&gt;&lt;/div&gt;&lt;div&gt;status&lt;/div&gt;" style="text;html=1;strokeColor=none;fillColor=none;align=left;verticalAlign=top;spacingLeft=4;spacingRight=4;whiteSpace=wrap;overflow=hidden;rotatable=0;points=[[0,0.5],[1,0.5]];portConstraint=eastwest;" vertex="1" parent="_FI4FavQm8VD4Ou4lNko-19">
          <mxGeometry y="26" width="120" height="54" as="geometry" />
        </mxCell>
        <mxCell id="_FI4FavQm8VD4Ou4lNko-21" value="&lt;font style=&quot;font-size: 12px;&quot;&gt;&lt;b&gt;games_cards&lt;/b&gt;&lt;/font&gt;" style="swimlane;html=1;fontStyle=0;childLayout=stackLayout;horizontal=1;startSize=26;fillColor=none;horizontalStack=0;resizeParent=1;resizeLast=0;collapsible=1;marginBottom=0;swimlaneFillColor=#ffffff;rounded=0;shadow=0;comic=0;labelBackgroundColor=none;strokeWidth=1;fontFamily=Verdana;fontSize=10;align=center;" vertex="1" parent="1">
          <mxGeometry x="10" y="310" width="120" height="100" as="geometry">
            <mxRectangle x="350" y="210" width="120" height="30" as="alternateBounds" />
          </mxGeometry>
        </mxCell>
        <mxCell id="_FI4FavQm8VD4Ou4lNko-22" value="&lt;u&gt;game_id&lt;/u&gt;&lt;div&gt;&lt;u&gt;card_id&lt;/u&gt;&lt;/div&gt;&lt;div&gt;&lt;u&gt;user_id&lt;/u&gt;&lt;/div&gt;&lt;div&gt;deck_order&lt;/div&gt;" style="text;html=1;strokeColor=none;fillColor=none;align=left;verticalAlign=top;spacingLeft=4;spacingRight=4;whiteSpace=wrap;overflow=hidden;rotatable=0;points=[[0,0.5],[1,0.5]];portConstraint=eastwest;" vertex="1" parent="_FI4FavQm8VD4Ou4lNko-21">
          <mxGeometry y="26" width="120" height="74" as="geometry" />
        </mxCell>
        <mxCell id="_FI4FavQm8VD4Ou4lNko-23" value="&lt;font style=&quot;font-size: 12px;&quot;&gt;&lt;b&gt;games_users&lt;/b&gt;&lt;/font&gt;" style="swimlane;html=1;fontStyle=0;childLayout=stackLayout;horizontal=1;startSize=26;fillColor=none;horizontalStack=0;resizeParent=1;resizeLast=0;collapsible=1;marginBottom=0;swimlaneFillColor=#ffffff;rounded=0;shadow=0;comic=0;labelBackgroundColor=none;strokeWidth=1;fontFamily=Verdana;fontSize=10;align=center;" vertex="1" parent="1">
          <mxGeometry x="220" y="480" width="120" height="80" as="geometry">
            <mxRectangle x="350" y="210" width="120" height="30" as="alternateBounds" />
          </mxGeometry>
        </mxCell>
        <mxCell id="_FI4FavQm8VD4Ou4lNko-24" value="&lt;u&gt;game_id&lt;/u&gt;&lt;div&gt;&lt;u&gt;user_id&lt;/u&gt;&lt;/div&gt;&lt;div&gt;move_order&lt;/div&gt;" style="text;html=1;strokeColor=none;fillColor=none;align=left;verticalAlign=top;spacingLeft=4;spacingRight=4;whiteSpace=wrap;overflow=hidden;rotatable=0;points=[[0,0.5],[1,0.5]];portConstraint=eastwest;" vertex="1" parent="_FI4FavQm8VD4Ou4lNko-23">
          <mxGeometry y="26" width="120" height="54" as="geometry" />
        </mxCell>
        <mxCell id="_FI4FavQm8VD4Ou4lNko-25" value="&lt;font style=&quot;font-size: 12px;&quot;&gt;&lt;b&gt;users&lt;/b&gt;&lt;/font&gt;" style="swimlane;html=1;fontStyle=0;childLayout=stackLayout;horizontal=1;startSize=26;fillColor=none;horizontalStack=0;resizeParent=1;resizeLast=0;collapsible=1;marginBottom=0;swimlaneFillColor=#ffffff;rounded=0;shadow=0;comic=0;labelBackgroundColor=none;strokeWidth=1;fontFamily=Verdana;fontSize=10;align=center;" vertex="1" parent="1">
          <mxGeometry x="40" y="460" width="120" height="130" as="geometry">
            <mxRectangle x="350" y="210" width="120" height="30" as="alternateBounds" />
          </mxGeometry>
        </mxCell>
        <mxCell id="_FI4FavQm8VD4Ou4lNko-26" value="type&lt;div&gt;email&lt;/div&gt;&lt;div&gt;username&lt;/div&gt;&lt;div&gt;password&lt;/div&gt;&lt;div&gt;rank&lt;/div&gt;&lt;div&gt;rating&lt;/div&gt;" style="text;html=1;strokeColor=none;fillColor=none;align=left;verticalAlign=top;spacingLeft=4;spacingRight=4;whiteSpace=wrap;overflow=hidden;rotatable=0;points=[[0,0.5],[1,0.5]];portConstraint=eastwest;" vertex="1" parent="_FI4FavQm8VD4Ou4lNko-25">
          <mxGeometry y="26" width="120" height="104" as="geometry" />
        </mxCell>
        <mxCell id="_FI4FavQm8VD4Ou4lNko-27" value="&lt;font style=&quot;font-size: 12px;&quot;&gt;&lt;b&gt;versions&lt;/b&gt;&lt;/font&gt;" style="swimlane;html=1;fontStyle=0;childLayout=stackLayout;horizontal=1;startSize=26;fillColor=none;horizontalStack=0;resizeParent=1;resizeLast=0;collapsible=1;marginBottom=0;swimlaneFillColor=#ffffff;rounded=0;shadow=0;comic=0;labelBackgroundColor=none;strokeWidth=1;fontFamily=Verdana;fontSize=10;align=center;" vertex="1" parent="1">
          <mxGeometry x="350" y="670" width="120" height="110" as="geometry">
            <mxRectangle x="350" y="210" width="120" height="30" as="alternateBounds" />
          </mxGeometry>
        </mxCell>
        <mxCell id="_FI4FavQm8VD4Ou4lNko-28" value="&lt;u&gt;item_type&lt;/u&gt;&lt;div&gt;&lt;u&gt;item_id&lt;/u&gt;&lt;/div&gt;&lt;div&gt;event&lt;/div&gt;&lt;div&gt;whodunnit&lt;/div&gt;&lt;div&gt;object&lt;/div&gt;" style="text;html=1;strokeColor=none;fillColor=none;align=left;verticalAlign=top;spacingLeft=4;spacingRight=4;whiteSpace=wrap;overflow=hidden;rotatable=0;points=[[0,0.5],[1,0.5]];portConstraint=eastwest;" vertex="1" parent="_FI4FavQm8VD4Ou4lNko-27">
          <mxGeometry y="26" width="120" height="84" as="geometry" />
        </mxCell>
        <mxCell id="_FI4FavQm8VD4Ou4lNko-29" value="" style="endArrow=diamondThin;html=1;rounded=0;entryX=0.5;entryY=0;entryDx=0;entryDy=0;exitX=0.5;exitY=1;exitDx=0;exitDy=0;startArrow=ERmany;startFill=0;endFill=1;" edge="1" parent="1" source="_FI4FavQm8VD4Ou4lNko-13" target="_FI4FavQm8VD4Ou4lNko-21">
          <mxGeometry width="50" height="50" relative="1" as="geometry">
            <mxPoint x="90" y="280" as="sourcePoint" />
            <mxPoint x="-10" y="280" as="targetPoint" />
          </mxGeometry>
        </mxCell>
        <mxCell id="_FI4FavQm8VD4Ou4lNko-30" value="" style="endArrow=diamondThin;html=1;rounded=0;entryX=0.99;entryY=0.384;entryDx=0;entryDy=0;exitX=0;exitY=0.25;exitDx=0;exitDy=0;startArrow=ERmany;startFill=0;endFill=1;entryPerimeter=0;" edge="1" parent="1" source="_FI4FavQm8VD4Ou4lNko-19" target="_FI4FavQm8VD4Ou4lNko-22">
          <mxGeometry width="50" height="50" relative="1" as="geometry">
            <mxPoint x="70" y="280" as="sourcePoint" />
            <mxPoint x="70" y="320" as="targetPoint" />
          </mxGeometry>
        </mxCell>
        <mxCell id="_FI4FavQm8VD4Ou4lNko-31" value="" style="endArrow=diamondThin;html=1;rounded=0;exitX=0.5;exitY=0;exitDx=0;exitDy=0;startArrow=diamondThin;startFill=1;endFill=1;entryX=-0.007;entryY=0.644;entryDx=0;entryDy=0;entryPerimeter=0;" edge="1" parent="1" source="_FI4FavQm8VD4Ou4lNko-25" target="_FI4FavQm8VD4Ou4lNko-20">
          <mxGeometry width="50" height="50" relative="1" as="geometry">
            <mxPoint x="191" y="440" as="sourcePoint" />
            <mxPoint x="170" y="383" as="targetPoint" />
          </mxGeometry>
        </mxCell>
        <mxCell id="_FI4FavQm8VD4Ou4lNko-32" value="" style="endArrow=ERmany;html=1;rounded=0;exitX=0.5;exitY=0;exitDx=0;exitDy=0;startArrow=diamondThin;startFill=1;endFill=0;entryX=0.483;entryY=1.015;entryDx=0;entryDy=0;entryPerimeter=0;" edge="1" parent="1" source="_FI4FavQm8VD4Ou4lNko-23" target="_FI4FavQm8VD4Ou4lNko-20">
          <mxGeometry width="50" height="50" relative="1" as="geometry">
            <mxPoint x="120" y="487" as="sourcePoint" />
            <mxPoint x="224" y="410" as="targetPoint" />
          </mxGeometry>
        </mxCell>
        <mxCell id="_FI4FavQm8VD4Ou4lNko-35" value="" style="endArrow=ERmany;html=1;rounded=0;exitX=0.01;exitY=0.281;exitDx=0;exitDy=0;startArrow=diamondThin;startFill=1;endFill=0;exitPerimeter=0;entryX=0.983;entryY=0.346;entryDx=0;entryDy=0;entryPerimeter=0;" edge="1" parent="1" source="_FI4FavQm8VD4Ou4lNko-24" target="_FI4FavQm8VD4Ou4lNko-26">
          <mxGeometry width="50" height="50" relative="1" as="geometry">
            <mxPoint x="243" y="508" as="sourcePoint" />
            <mxPoint x="230" y="440" as="targetPoint" />
          </mxGeometry>
        </mxCell>
        <mxCell id="_FI4FavQm8VD4Ou4lNko-36" value="" style="endArrow=diamondThin;html=1;rounded=0;exitX=1.013;exitY=0.185;exitDx=0;exitDy=0;startArrow=diamondThin;startFill=1;endFill=1;entryX=0.015;entryY=0.973;entryDx=0;entryDy=0;entryPerimeter=0;exitPerimeter=0;" edge="1" parent="1" source="_FI4FavQm8VD4Ou4lNko-20" target="_FI4FavQm8VD4Ou4lNko-8">
          <mxGeometry width="50" height="50" relative="1" as="geometry">
            <mxPoint x="150" y="487" as="sourcePoint" />
            <mxPoint x="254" y="410" as="targetPoint" />
          </mxGeometry>
        </mxCell>
        <mxCell id="_FI4FavQm8VD4Ou4lNko-37" value="" style="endArrow=ERmany;html=1;rounded=0;startArrow=diamondThin;startFill=1;endFill=0;entryX=0.43;entryY=0.996;entryDx=0;entryDy=0;entryPerimeter=0;" edge="1" parent="1" source="_FI4FavQm8VD4Ou4lNko-7" target="17acba5748e5396b-21">
          <mxGeometry width="50" height="50" relative="1" as="geometry">
            <mxPoint x="130" y="487" as="sourcePoint" />
            <mxPoint x="234" y="410" as="targetPoint" />
          </mxGeometry>
        </mxCell>
        <mxCell id="_FI4FavQm8VD4Ou4lNko-38" value="" style="endArrow=diamondThin;html=1;rounded=0;exitX=1.017;exitY=0.132;exitDx=0;exitDy=0;startArrow=diamondThin;startFill=1;endFill=1;entryX=0.01;entryY=0.804;entryDx=0;entryDy=0;entryPerimeter=0;exitPerimeter=0;" edge="1" parent="1" source="_FI4FavQm8VD4Ou4lNko-14" target="17acba5748e5396b-21">
          <mxGeometry width="50" height="50" relative="1" as="geometry">
            <mxPoint x="340" y="165" as="sourcePoint" />
            <mxPoint x="417" y="110" as="targetPoint" />
          </mxGeometry>
        </mxCell>
        <mxCell id="_FI4FavQm8VD4Ou4lNko-39" value="" style="endArrow=ERmany;html=1;rounded=0;exitX=0.97;exitY=0.114;exitDx=0;exitDy=0;startArrow=diamondThin;startFill=1;endFill=0;entryX=0.003;entryY=0.146;entryDx=0;entryDy=0;entryPerimeter=0;exitPerimeter=0;" edge="1" parent="1" source="_FI4FavQm8VD4Ou4lNko-7" target="_FI4FavQm8VD4Ou4lNko-6">
          <mxGeometry width="50" height="50" relative="1" as="geometry">
            <mxPoint x="300" y="255" as="sourcePoint" />
            <mxPoint x="377" y="200" as="targetPoint" />
          </mxGeometry>
        </mxCell>
        <mxCell id="_FI4FavQm8VD4Ou4lNko-40" value="" style="endArrow=diamondThin;html=1;rounded=0;entryX=-0.007;entryY=0.351;entryDx=0;entryDy=0;exitX=0.5;exitY=0;exitDx=0;exitDy=0;startArrow=ERmany;startFill=0;endFill=1;entryPerimeter=0;" edge="1" parent="1" source="_FI4FavQm8VD4Ou4lNko-13" target="_FI4FavQm8VD4Ou4lNko-4">
          <mxGeometry width="50" height="50" relative="1" as="geometry">
            <mxPoint x="60" y="280" as="sourcePoint" />
            <mxPoint x="60" y="320" as="targetPoint" />
          </mxGeometry>
        </mxCell>
        <mxCell id="_FI4FavQm8VD4Ou4lNko-41" value="" style="endArrow=diamondThin;html=1;rounded=0;entryX=1;entryY=0.5;entryDx=0;entryDy=0;startArrow=ERmany;startFill=0;endFill=1;exitX=0.02;exitY=0.373;exitDx=0;exitDy=0;exitPerimeter=0;" edge="1" parent="1" source="17acba5748e5396b-21" target="_FI4FavQm8VD4Ou4lNko-4">
          <mxGeometry width="50" height="50" relative="1" as="geometry">
            <mxPoint x="310" y="120" as="sourcePoint" />
            <mxPoint x="259" y="110" as="targetPoint" />
          </mxGeometry>
        </mxCell>
        <mxCell id="_FI4FavQm8VD4Ou4lNko-42" value="" style="endArrow=diamondThin;html=1;rounded=0;entryX=0.02;entryY=0.461;entryDx=0;entryDy=0;exitX=1.006;exitY=0.269;exitDx=0;exitDy=0;startArrow=ERmany;startFill=0;endFill=1;entryPerimeter=0;exitPerimeter=0;" edge="1" parent="1" source="_FI4FavQm8VD4Ou4lNko-10" target="_FI4FavQm8VD4Ou4lNko-14">
          <mxGeometry width="50" height="50" relative="1" as="geometry">
            <mxPoint x="70" y="280" as="sourcePoint" />
            <mxPoint x="70" y="320" as="targetPoint" />
          </mxGeometry>
        </mxCell>
        <mxCell id="_FI4FavQm8VD4Ou4lNko-43" value="" style="endArrow=diamondThin;html=1;rounded=0;entryX=0.013;entryY=0.894;entryDx=0;entryDy=0;exitX=0.99;exitY=0.064;exitDx=0;exitDy=0;startArrow=ERmany;startFill=0;endFill=1;entryPerimeter=0;exitPerimeter=0;" edge="1" parent="1" source="_FI4FavQm8VD4Ou4lNko-11" target="_FI4FavQm8VD4Ou4lNko-14">
          <mxGeometry width="50" height="50" relative="1" as="geometry">
            <mxPoint x="-20" y="170" as="sourcePoint" />
            <mxPoint x="21" y="199" as="targetPoint" />
          </mxGeometry>
        </mxCell>
        <mxCell id="_FI4FavQm8VD4Ou4lNko-45" value="" style="endArrow=diamondThin;html=1;rounded=0;entryX=-0.012;entryY=0.371;entryDx=0;entryDy=0;exitX=1.013;exitY=0.726;exitDx=0;exitDy=0;startArrow=ERmany;startFill=0;endFill=1;entryPerimeter=0;exitPerimeter=0;" edge="1" parent="1" source="_FI4FavQm8VD4Ou4lNko-14" target="_FI4FavQm8VD4Ou4lNko-16">
          <mxGeometry width="50" height="50" relative="1" as="geometry">
            <mxPoint x="140" y="270" as="sourcePoint" />
            <mxPoint x="140" y="310" as="targetPoint" />
          </mxGeometry>
        </mxCell>
        <mxCell id="_FI4FavQm8VD4Ou4lNko-46" value="" style="endArrow=diamondThin;html=1;rounded=0;entryX=-0.006;entryY=0.971;entryDx=0;entryDy=0;exitX=1;exitY=0;exitDx=0;exitDy=0;startArrow=diamondThin;startFill=1;endFill=1;entryPerimeter=0;" edge="1" parent="1" source="_FI4FavQm8VD4Ou4lNko-25" target="_FI4FavQm8VD4Ou4lNko-16">
          <mxGeometry width="50" height="50" relative="1" as="geometry">
            <mxPoint x="150" y="230" as="sourcePoint" />
            <mxPoint x="206" y="241" as="targetPoint" />
          </mxGeometry>
        </mxCell>
        <mxCell id="_FI4FavQm8VD4Ou4lNko-47" value="" style="endArrow=diamondThin;html=1;rounded=0;entryX=0.495;entryY=1.011;entryDx=0;entryDy=0;startArrow=diamondThin;startFill=1;endFill=1;exitX=0.375;exitY=-0.018;exitDx=0;exitDy=0;entryPerimeter=0;exitPerimeter=0;" edge="1" parent="1" source="_FI4FavQm8VD4Ou4lNko-15" target="_FI4FavQm8VD4Ou4lNko-4">
          <mxGeometry width="50" height="50" relative="1" as="geometry">
            <mxPoint x="402" y="114" as="sourcePoint" />
            <mxPoint x="350" y="80" as="targetPoint" />
          </mxGeometry>
        </mxCell>
        <mxCell id="_FI4FavQm8VD4Ou4lNko-48" value="" style="endArrow=diamondThin;html=1;rounded=0;entryX=0.5;entryY=0;entryDx=0;entryDy=0;startArrow=ERmany;startFill=0;endFill=1;exitX=0.572;exitY=0.971;exitDx=0;exitDy=0;exitPerimeter=0;" edge="1" parent="1" source="_FI4FavQm8VD4Ou4lNko-16" target="_FI4FavQm8VD4Ou4lNko-19">
          <mxGeometry width="50" height="50" relative="1" as="geometry">
            <mxPoint x="300" y="177" as="sourcePoint" />
            <mxPoint x="310" y="110" as="targetPoint" />
          </mxGeometry>
        </mxCell>
      </root>
    </mxGraphModel>
  </diagram>
</mxfile>
